<mxfile host="app.diagrams.net" modified="2020-09-20T13:12:49.540Z" agent="5.0 (Windows NT 10.0; Win64; x64) AppleWebKit/537.36 (KHTML, like Gecko) Chrome/85.0.4183.102 Safari/537.36" etag="L96MMQC1kIVIM5XoVv_a" version="13.7.3" type="github">
  <diagram id="R2lEEEUBdFMjLlhIrx00" name="Page-1">
    <mxGraphModel dx="1958" dy="1582" grid="1" gridSize="10" guides="1" tooltips="1" connect="1" arrows="1" fold="1" page="1" pageScale="1" pageWidth="850" pageHeight="1100" math="0" shadow="0" extFonts="Permanent Marker^https://fonts.googleapis.com/css?family=Permanent+Marker">
      <root>
        <mxCell id="0" />
        <mxCell id="1" parent="0" />
        <mxCell id="iuMVXom3aVEvyuveYDUm-4" value="" style="endArrow=none;html=1;" parent="1" edge="1">
          <mxGeometry width="50" height="50" relative="1" as="geometry">
            <mxPoint x="350" y="-750" as="sourcePoint" />
            <mxPoint x="338.9736659610103" y="-772.0526680779794" as="targetPoint" />
          </mxGeometry>
        </mxCell>
        <mxCell id="iuMVXom3aVEvyuveYDUm-7" value="" style="endArrow=none;html=1;" parent="1" edge="1">
          <mxGeometry width="50" height="50" relative="1" as="geometry">
            <mxPoint x="510" y="-840" as="sourcePoint" />
            <mxPoint x="570" y="-880" as="targetPoint" />
          </mxGeometry>
        </mxCell>
        <mxCell id="iuMVXom3aVEvyuveYDUm-8" value="" style="endArrow=none;html=1;exitX=0.283;exitY=0.063;exitDx=0;exitDy=0;exitPerimeter=0;" parent="1" edge="1">
          <mxGeometry width="50" height="50" relative="1" as="geometry">
            <mxPoint x="443.96000000000004" y="-844.96" as="sourcePoint" />
            <mxPoint x="400" y="-890" as="targetPoint" />
          </mxGeometry>
        </mxCell>
        <mxCell id="iuMVXom3aVEvyuveYDUm-9" value="" style="endArrow=none;html=1;" parent="1" edge="1">
          <mxGeometry width="50" height="50" relative="1" as="geometry">
            <mxPoint x="480" y="-850" as="sourcePoint" />
            <mxPoint x="530" y="-900" as="targetPoint" />
          </mxGeometry>
        </mxCell>
        <mxCell id="iuMVXom3aVEvyuveYDUm-10" value="" style="endArrow=none;html=1;" parent="1" edge="1">
          <mxGeometry width="50" height="50" relative="1" as="geometry">
            <mxPoint x="460" y="-850" as="sourcePoint" />
            <mxPoint x="440" y="-910" as="targetPoint" />
            <Array as="points" />
          </mxGeometry>
        </mxCell>
        <mxCell id="iuMVXom3aVEvyuveYDUm-19" value="" style="endArrow=none;html=1;" parent="1" edge="1">
          <mxGeometry width="50" height="50" relative="1" as="geometry">
            <mxPoint x="230" y="-500" as="sourcePoint" />
            <mxPoint x="280" y="-550" as="targetPoint" />
            <Array as="points" />
          </mxGeometry>
        </mxCell>
        <mxCell id="iuMVXom3aVEvyuveYDUm-20" value="" style="endArrow=none;html=1;entryX=0.5;entryY=1;entryDx=0;entryDy=0;" parent="1" edge="1" target="iuMVXom3aVEvyuveYDUm-24">
          <mxGeometry width="50" height="50" relative="1" as="geometry">
            <mxPoint x="160" y="-500" as="sourcePoint" />
            <mxPoint x="140" y="-560" as="targetPoint" />
          </mxGeometry>
        </mxCell>
        <mxCell id="iuMVXom3aVEvyuveYDUm-21" value="" style="endArrow=none;html=1;" parent="1" edge="1" target="iuMVXom3aVEvyuveYDUm-23">
          <mxGeometry width="50" height="50" relative="1" as="geometry">
            <mxPoint x="140" y="-500" as="sourcePoint" />
            <mxPoint x="100" y="-540" as="targetPoint" />
          </mxGeometry>
        </mxCell>
        <mxCell id="iuMVXom3aVEvyuveYDUm-22" value="Room" style="shape=ext;margin=3;double=1;whiteSpace=wrap;html=1;align=center;" parent="1" vertex="1">
          <mxGeometry x="135" y="-500" width="115" height="40" as="geometry" />
        </mxCell>
        <mxCell id="iuMVXom3aVEvyuveYDUm-23" value="&lt;span style=&quot;border-bottom: 1px dotted&quot;&gt;Room_Number&lt;/span&gt;" style="ellipse;whiteSpace=wrap;html=1;align=center;" parent="1" vertex="1">
          <mxGeometry x="20" y="-570" width="100" height="30" as="geometry" />
        </mxCell>
        <mxCell id="iuMVXom3aVEvyuveYDUm-24" value="Floor_Number" style="ellipse;whiteSpace=wrap;html=1;align=center;" parent="1" vertex="1">
          <mxGeometry x="90" y="-600" width="90" height="30" as="geometry" />
        </mxCell>
        <mxCell id="iuMVXom3aVEvyuveYDUm-25" value="People_Count" style="ellipse;whiteSpace=wrap;html=1;align=center;" parent="1" vertex="1">
          <mxGeometry x="250" y="-577" width="120" height="27.5" as="geometry" />
        </mxCell>
        <mxCell id="iuMVXom3aVEvyuveYDUm-31" value="" style="endArrow=none;html=1;" parent="1" source="iuMVXom3aVEvyuveYDUm-32" edge="1">
          <mxGeometry width="50" height="50" relative="1" as="geometry">
            <mxPoint x="400" y="-700" as="sourcePoint" />
            <mxPoint x="450" y="-750" as="targetPoint" />
          </mxGeometry>
        </mxCell>
        <mxCell id="iuMVXom3aVEvyuveYDUm-32" value="Hotel" style="rounded=0;whiteSpace=wrap;html=1;" parent="1" vertex="1">
          <mxGeometry x="330" y="-750" width="120" height="50" as="geometry" />
        </mxCell>
        <mxCell id="iuMVXom3aVEvyuveYDUm-33" value="" style="endArrow=none;html=1;" parent="1" target="iuMVXom3aVEvyuveYDUm-32" edge="1">
          <mxGeometry width="50" height="50" relative="1" as="geometry">
            <mxPoint x="400" y="-700" as="sourcePoint" />
            <mxPoint x="450" y="-750" as="targetPoint" />
          </mxGeometry>
        </mxCell>
        <mxCell id="iuMVXom3aVEvyuveYDUm-34" value="" style="endArrow=none;html=1;exitX=1;exitY=0;exitDx=0;exitDy=0;" parent="1" source="iuMVXom3aVEvyuveYDUm-32" edge="1">
          <mxGeometry width="50" height="50" relative="1" as="geometry">
            <mxPoint x="450" y="-720" as="sourcePoint" />
            <mxPoint x="640" y="-810" as="targetPoint" />
          </mxGeometry>
        </mxCell>
        <mxCell id="iuMVXom3aVEvyuveYDUm-35" value="Hotel_Number" style="ellipse;whiteSpace=wrap;html=1;align=center;fontStyle=4;" parent="1" vertex="1">
          <mxGeometry x="600" y="-850" width="100" height="40" as="geometry" />
        </mxCell>
        <mxCell id="iuMVXom3aVEvyuveYDUm-36" value="Has" style="shape=rhombus;double=1;perimeter=rhombusPerimeter;whiteSpace=wrap;html=1;align=center;" parent="1" vertex="1">
          <mxGeometry x="160" y="-650" width="120" height="60" as="geometry" />
        </mxCell>
        <mxCell id="iuMVXom3aVEvyuveYDUm-38" value="Price_Per_Night" style="ellipse;whiteSpace=wrap;html=1;align=center;" parent="1" vertex="1">
          <mxGeometry x="282.5" y="-543.75" width="120" height="30" as="geometry" />
        </mxCell>
        <mxCell id="iuMVXom3aVEvyuveYDUm-53" value="Offers" style="shape=rhombus;double=1;perimeter=rhombusPerimeter;whiteSpace=wrap;html=1;align=center;" parent="1" vertex="1">
          <mxGeometry x="600" y="-700" width="120" height="60" as="geometry" />
        </mxCell>
        <mxCell id="iuMVXom3aVEvyuveYDUm-55" value="Breakfast" style="shape=ext;margin=3;double=1;whiteSpace=wrap;html=1;align=center;" parent="1" vertex="1">
          <mxGeometry x="610" y="-465" width="100" height="40" as="geometry" />
        </mxCell>
        <mxCell id="iuMVXom3aVEvyuveYDUm-56" value="" style="endArrow=none;html=1;entryX=0.5;entryY=1;entryDx=0;entryDy=0;exitX=0;exitY=0;exitDx=0;exitDy=0;" parent="1" target="iuMVXom3aVEvyuveYDUm-60" edge="1" source="iuMVXom3aVEvyuveYDUm-55">
          <mxGeometry width="50" height="50" relative="1" as="geometry">
            <mxPoint x="520" y="-450" as="sourcePoint" />
            <mxPoint x="570" y="-500" as="targetPoint" />
          </mxGeometry>
        </mxCell>
        <mxCell id="iuMVXom3aVEvyuveYDUm-57" value="" style="endArrow=none;html=1;entryX=0.5;entryY=1;entryDx=0;entryDy=0;exitX=0.75;exitY=0;exitDx=0;exitDy=0;" parent="1" target="iuMVXom3aVEvyuveYDUm-61" edge="1" source="iuMVXom3aVEvyuveYDUm-55">
          <mxGeometry width="50" height="50" relative="1" as="geometry">
            <mxPoint x="550" y="-450" as="sourcePoint" />
            <mxPoint x="600" y="-500" as="targetPoint" />
          </mxGeometry>
        </mxCell>
        <mxCell id="iuMVXom3aVEvyuveYDUm-60" value="&lt;span style=&quot;border-bottom: 1px dotted&quot;&gt;Breakfast_Type&lt;/span&gt;" style="ellipse;whiteSpace=wrap;html=1;align=center;" parent="1" vertex="1">
          <mxGeometry x="490" y="-556.25" width="100" height="30" as="geometry" />
        </mxCell>
        <mxCell id="iuMVXom3aVEvyuveYDUm-61" value="Description" style="ellipse;whiteSpace=wrap;html=1;align=center;" parent="1" vertex="1">
          <mxGeometry x="670" y="-540" width="90" height="26.25" as="geometry" />
        </mxCell>
        <mxCell id="iuMVXom3aVEvyuveYDUm-64" value="Provides" style="shape=rhombus;double=1;perimeter=rhombusPerimeter;whiteSpace=wrap;html=1;align=center;" parent="1" vertex="1">
          <mxGeometry x="780" y="-582.5" width="120" height="60" as="geometry" />
        </mxCell>
        <mxCell id="iuMVXom3aVEvyuveYDUm-65" value="" style="endArrow=none;html=1;entryX=0.5;entryY=1;entryDx=0;entryDy=0;exitX=0.75;exitY=0;exitDx=0;exitDy=0;" parent="1" edge="1" target="iuMVXom3aVEvyuveYDUm-78" source="iuMVXom3aVEvyuveYDUm-73">
          <mxGeometry width="50" height="50" relative="1" as="geometry">
            <mxPoint x="790" y="-440" as="sourcePoint" />
            <mxPoint x="840" y="-490" as="targetPoint" />
          </mxGeometry>
        </mxCell>
        <mxCell id="iuMVXom3aVEvyuveYDUm-73" value="Services" style="shape=ext;margin=3;double=1;whiteSpace=wrap;html=1;align=center;" parent="1" vertex="1">
          <mxGeometry x="790" y="-430" width="100" height="40" as="geometry" />
        </mxCell>
        <mxCell id="iuMVXom3aVEvyuveYDUm-74" value="" style="endArrow=none;html=1;exitX=0.5;exitY=1;exitDx=0;exitDy=0;entryX=0.25;entryY=0;entryDx=0;entryDy=0;" parent="1" edge="1" target="iuMVXom3aVEvyuveYDUm-73" source="o2ZF4EV_pDXBrr74jz46-11">
          <mxGeometry width="50" height="50" relative="1" as="geometry">
            <mxPoint x="700" y="-460" as="sourcePoint" />
            <mxPoint x="720" y="-440" as="targetPoint" />
          </mxGeometry>
        </mxCell>
        <mxCell id="iuMVXom3aVEvyuveYDUm-78" value="Cost" style="ellipse;whiteSpace=wrap;html=1;align=center;" parent="1" vertex="1">
          <mxGeometry x="850" y="-507" width="90" height="25" as="geometry" />
        </mxCell>
        <mxCell id="iuMVXom3aVEvyuveYDUm-79" value="" style="endArrow=none;html=1;exitX=1;exitY=0.25;exitDx=0;exitDy=0;" parent="1" source="iuMVXom3aVEvyuveYDUm-73" target="iuMVXom3aVEvyuveYDUm-80" edge="1">
          <mxGeometry width="50" height="50" relative="1" as="geometry">
            <mxPoint x="850" y="-405" as="sourcePoint" />
            <mxPoint x="900" y="-455" as="targetPoint" />
          </mxGeometry>
        </mxCell>
        <mxCell id="iuMVXom3aVEvyuveYDUm-80" value="Description" style="ellipse;whiteSpace=wrap;html=1;align=center;" parent="1" vertex="1">
          <mxGeometry x="950" y="-545" width="100" height="40" as="geometry" />
        </mxCell>
        <mxCell id="o2ZF4EV_pDXBrr74jz46-1" value="" style="shape=link;html=1;rounded=0;entryX=0.5;entryY=1;entryDx=0;entryDy=0;" parent="1" target="iuMVXom3aVEvyuveYDUm-36" edge="1">
          <mxGeometry relative="1" as="geometry">
            <mxPoint x="190" y="-500" as="sourcePoint" />
            <mxPoint x="350" y="-500" as="targetPoint" />
          </mxGeometry>
        </mxCell>
        <mxCell id="o2ZF4EV_pDXBrr74jz46-3" value="Phone_Number" style="ellipse;shape=doubleEllipse;margin=3;whiteSpace=wrap;html=1;align=center;" parent="1" vertex="1">
          <mxGeometry x="280" y="-810" width="100" height="40" as="geometry" />
        </mxCell>
        <mxCell id="o2ZF4EV_pDXBrr74jz46-4" value="Street_Address" style="ellipse;whiteSpace=wrap;html=1;align=center;" parent="1" vertex="1">
          <mxGeometry x="320" y="-920" width="100" height="40" as="geometry" />
        </mxCell>
        <mxCell id="o2ZF4EV_pDXBrr74jz46-5" value="Zip" style="ellipse;whiteSpace=wrap;html=1;align=center;" parent="1" vertex="1">
          <mxGeometry x="402.5" y="-940" width="75" height="30" as="geometry" />
        </mxCell>
        <mxCell id="o2ZF4EV_pDXBrr74jz46-6" value="State" style="ellipse;whiteSpace=wrap;html=1;align=center;" parent="1" vertex="1">
          <mxGeometry x="487.5" y="-930" width="82.5" height="30" as="geometry" />
        </mxCell>
        <mxCell id="o2ZF4EV_pDXBrr74jz46-7" value="Country" style="ellipse;whiteSpace=wrap;html=1;align=center;" parent="1" vertex="1">
          <mxGeometry x="560" y="-910" width="100" height="40" as="geometry" />
        </mxCell>
        <mxCell id="o2ZF4EV_pDXBrr74jz46-8" value="Location" style="ellipse;whiteSpace=wrap;html=1;align=center;" parent="1" vertex="1">
          <mxGeometry x="420" y="-850" width="100" height="40" as="geometry" />
        </mxCell>
        <mxCell id="o2ZF4EV_pDXBrr74jz46-10" value="" style="endArrow=none;html=1;rounded=0;entryX=0.5;entryY=1;entryDx=0;entryDy=0;exitX=0.5;exitY=0;exitDx=0;exitDy=0;exitPerimeter=0;" parent="1" source="iuMVXom3aVEvyuveYDUm-32" target="o2ZF4EV_pDXBrr74jz46-8" edge="1">
          <mxGeometry relative="1" as="geometry">
            <mxPoint x="400" y="-753" as="sourcePoint" />
            <mxPoint x="420" y="-780" as="targetPoint" />
          </mxGeometry>
        </mxCell>
        <mxCell id="o2ZF4EV_pDXBrr74jz46-11" value="&lt;span style=&quot;border-bottom: 1px dotted&quot;&gt;Service_Type&lt;/span&gt;" style="ellipse;whiteSpace=wrap;html=1;align=center;" parent="1" vertex="1">
          <mxGeometry x="710" y="-490" width="100" height="30" as="geometry" />
        </mxCell>
        <mxCell id="o2ZF4EV_pDXBrr74jz46-18" value="Discounted Room" style="rounded=0;whiteSpace=wrap;html=1;" parent="1" vertex="1">
          <mxGeometry x="60" y="-320" width="120" height="30" as="geometry" />
        </mxCell>
        <mxCell id="o2ZF4EV_pDXBrr74jz46-19" value="Normal Room" style="rounded=0;whiteSpace=wrap;html=1;" parent="1" vertex="1">
          <mxGeometry x="212.5" y="-320" width="117.5" height="30" as="geometry" />
        </mxCell>
        <mxCell id="o2ZF4EV_pDXBrr74jz46-20" value="Discount_Start_Date" style="ellipse;whiteSpace=wrap;html=1;align=center;" parent="1" vertex="1">
          <mxGeometry x="60" y="-450" width="120" height="40" as="geometry" />
        </mxCell>
        <mxCell id="o2ZF4EV_pDXBrr74jz46-21" value="Discount_End_Date" style="ellipse;whiteSpace=wrap;html=1;align=center;" parent="1" vertex="1">
          <mxGeometry x="-130" y="-380" width="120" height="40" as="geometry" />
        </mxCell>
        <mxCell id="o2ZF4EV_pDXBrr74jz46-22" value="Discounted_Percentage" style="ellipse;whiteSpace=wrap;html=1;align=center;" parent="1" vertex="1">
          <mxGeometry x="-140" y="-325" width="150" height="35" as="geometry" />
        </mxCell>
        <mxCell id="o2ZF4EV_pDXBrr74jz46-23" value="Discounted_Price" style="ellipse;whiteSpace=wrap;html=1;align=center;dashed=1;" parent="1" vertex="1">
          <mxGeometry x="-10" y="-400" width="120" height="40" as="geometry" />
        </mxCell>
        <mxCell id="o2ZF4EV_pDXBrr74jz46-24" value="" style="endArrow=none;html=1;rounded=0;entryX=0.5;entryY=1;entryDx=0;entryDy=0;" parent="1" source="o2ZF4EV_pDXBrr74jz46-18" target="o2ZF4EV_pDXBrr74jz46-20" edge="1">
          <mxGeometry relative="1" as="geometry">
            <mxPoint x="113" y="-319" as="sourcePoint" />
            <mxPoint x="420" y="-370" as="targetPoint" />
          </mxGeometry>
        </mxCell>
        <mxCell id="o2ZF4EV_pDXBrr74jz46-25" value="" style="endArrow=none;html=1;rounded=0;exitX=0.5;exitY=1;exitDx=0;exitDy=0;entryX=0.25;entryY=0;entryDx=0;entryDy=0;" parent="1" edge="1" target="o2ZF4EV_pDXBrr74jz46-18" source="o2ZF4EV_pDXBrr74jz46-23">
          <mxGeometry relative="1" as="geometry">
            <mxPoint x="10" y="-351" as="sourcePoint" />
            <mxPoint x="110" y="-280" as="targetPoint" />
          </mxGeometry>
        </mxCell>
        <mxCell id="o2ZF4EV_pDXBrr74jz46-27" value="" style="endArrow=none;html=1;rounded=0;entryX=0;entryY=0;entryDx=0;entryDy=0;exitX=1;exitY=1;exitDx=0;exitDy=0;" parent="1" target="o2ZF4EV_pDXBrr74jz46-18" edge="1" source="o2ZF4EV_pDXBrr74jz46-21">
          <mxGeometry relative="1" as="geometry">
            <mxPoint x="20" y="-300" as="sourcePoint" />
            <mxPoint x="180" y="-300" as="targetPoint" />
          </mxGeometry>
        </mxCell>
        <mxCell id="o2ZF4EV_pDXBrr74jz46-28" value="" style="endArrow=none;html=1;rounded=0;exitX=1;exitY=0.5;exitDx=0;exitDy=0;entryX=0;entryY=0.5;entryDx=0;entryDy=0;" parent="1" edge="1" target="o2ZF4EV_pDXBrr74jz46-18" source="o2ZF4EV_pDXBrr74jz46-22">
          <mxGeometry relative="1" as="geometry">
            <mxPoint x="10" y="-270" as="sourcePoint" />
            <mxPoint x="70" y="-270" as="targetPoint" />
          </mxGeometry>
        </mxCell>
        <mxCell id="o2ZF4EV_pDXBrr74jz46-32" value="" style="endArrow=none;html=1;entryX=0;entryY=1;entryDx=0;entryDy=0;exitX=0.5;exitY=0;exitDx=0;exitDy=0;" parent="1" target="o2ZF4EV_pDXBrr74jz46-15" edge="1" source="o2ZF4EV_pDXBrr74jz46-18">
          <mxGeometry width="50" height="50" relative="1" as="geometry">
            <mxPoint x="135" y="-280" as="sourcePoint" />
            <mxPoint x="185.85786437626894" y="-325.85786437626894" as="targetPoint" />
          </mxGeometry>
        </mxCell>
        <mxCell id="o2ZF4EV_pDXBrr74jz46-55" value="Price_Per_Serving" style="ellipse;whiteSpace=wrap;html=1;align=center;" parent="1" vertex="1">
          <mxGeometry x="517.5" y="-610" width="130" height="30" as="geometry" />
        </mxCell>
        <mxCell id="o2ZF4EV_pDXBrr74jz46-56" value="" style="endArrow=none;html=1;rounded=0;exitX=0.5;exitY=1;exitDx=0;exitDy=0;entryX=0.25;entryY=0;entryDx=0;entryDy=0;" parent="1" source="o2ZF4EV_pDXBrr74jz46-55" target="iuMVXom3aVEvyuveYDUm-55" edge="1">
          <mxGeometry relative="1" as="geometry">
            <mxPoint x="500" y="-380" as="sourcePoint" />
            <mxPoint x="660" y="-380" as="targetPoint" />
          </mxGeometry>
        </mxCell>
        <mxCell id="o2ZF4EV_pDXBrr74jz46-57" value="" style="endArrow=none;html=1;rounded=0;entryX=1;entryY=0.25;entryDx=0;entryDy=0;exitX=0;exitY=1;exitDx=0;exitDy=0;" parent="1" source="iuMVXom3aVEvyuveYDUm-38" target="iuMVXom3aVEvyuveYDUm-22" edge="1">
          <mxGeometry relative="1" as="geometry">
            <mxPoint x="60" y="-480" as="sourcePoint" />
            <mxPoint x="220" y="-480" as="targetPoint" />
          </mxGeometry>
        </mxCell>
        <mxCell id="o2ZF4EV_pDXBrr74jz46-58" value="" style="shape=link;html=1;rounded=0;entryX=0.5;entryY=1;entryDx=0;entryDy=0;exitX=0.5;exitY=0;exitDx=0;exitDy=0;" parent="1" source="iuMVXom3aVEvyuveYDUm-55" target="iuMVXom3aVEvyuveYDUm-53" edge="1">
          <mxGeometry relative="1" as="geometry">
            <mxPoint x="300" y="-600" as="sourcePoint" />
            <mxPoint x="460" y="-600" as="targetPoint" />
          </mxGeometry>
        </mxCell>
        <mxCell id="o2ZF4EV_pDXBrr74jz46-60" value="" style="shape=link;html=1;rounded=0;exitX=0.5;exitY=0;exitDx=0;exitDy=0;entryX=0.5;entryY=1;entryDx=0;entryDy=0;" parent="1" source="iuMVXom3aVEvyuveYDUm-73" edge="1" target="iuMVXom3aVEvyuveYDUm-64">
          <mxGeometry relative="1" as="geometry">
            <mxPoint x="610" y="-520" as="sourcePoint" />
            <mxPoint x="770" y="-520" as="targetPoint" />
          </mxGeometry>
        </mxCell>
        <mxCell id="o2ZF4EV_pDXBrr74jz46-68" value="Includes" style="shape=rhombus;perimeter=rhombusPerimeter;whiteSpace=wrap;html=1;align=center;" parent="1" vertex="1">
          <mxGeometry x="-270" y="-340" width="120" height="60" as="geometry" />
        </mxCell>
        <mxCell id="o2ZF4EV_pDXBrr74jz46-80" value="1" style="text;html=1;align=center;verticalAlign=middle;resizable=0;points=[];autosize=1;" parent="1" vertex="1">
          <mxGeometry x="240" y="-656" width="20" height="20" as="geometry" />
        </mxCell>
        <mxCell id="o2ZF4EV_pDXBrr74jz46-81" value="N" style="text;html=1;align=center;verticalAlign=middle;resizable=0;points=[];autosize=1;" parent="1" vertex="1">
          <mxGeometry x="225" y="-590" width="20" height="20" as="geometry" />
        </mxCell>
        <mxCell id="o2ZF4EV_pDXBrr74jz46-82" value="1" style="text;html=1;align=center;verticalAlign=middle;resizable=0;points=[];autosize=1;" parent="1" vertex="1">
          <mxGeometry x="550" y="-722" width="20" height="20" as="geometry" />
        </mxCell>
        <mxCell id="o2ZF4EV_pDXBrr74jz46-83" value="N" style="text;html=1;align=center;verticalAlign=middle;resizable=0;points=[];autosize=1;" parent="1" vertex="1">
          <mxGeometry x="670" y="-640" width="20" height="20" as="geometry" />
        </mxCell>
        <mxCell id="o2ZF4EV_pDXBrr74jz46-84" value="1" style="text;html=1;align=center;verticalAlign=middle;resizable=0;points=[];autosize=1;" parent="1" vertex="1">
          <mxGeometry x="840" y="-606" width="20" height="20" as="geometry" />
        </mxCell>
        <mxCell id="o2ZF4EV_pDXBrr74jz46-85" value="N" style="text;html=1;align=center;verticalAlign=middle;resizable=0;points=[];autosize=1;" parent="1" vertex="1">
          <mxGeometry x="845" y="-527" width="20" height="20" as="geometry" />
        </mxCell>
        <mxCell id="o2ZF4EV_pDXBrr74jz46-96" value="Customer" style="whiteSpace=wrap;html=1;align=center;" parent="1" vertex="1">
          <mxGeometry x="-541" y="-896" width="71" height="40" as="geometry" />
        </mxCell>
        <mxCell id="o2ZF4EV_pDXBrr74jz46-97" value="" style="endArrow=none;html=1;entryX=0.5;entryY=1;entryDx=0;entryDy=0;exitX=1;exitY=0.25;exitDx=0;exitDy=0;" parent="1" source="o2ZF4EV_pDXBrr74jz46-96" target="o2ZF4EV_pDXBrr74jz46-103" edge="1">
          <mxGeometry width="50" height="50" relative="1" as="geometry">
            <mxPoint x="-441" y="-874" as="sourcePoint" />
            <mxPoint x="-391" y="-924" as="targetPoint" />
          </mxGeometry>
        </mxCell>
        <mxCell id="o2ZF4EV_pDXBrr74jz46-99" value="" style="endArrow=none;html=1;entryX=1;entryY=0.5;entryDx=0;entryDy=0;exitX=0.25;exitY=0;exitDx=0;exitDy=0;" parent="1" source="o2ZF4EV_pDXBrr74jz46-96" target="o2ZF4EV_pDXBrr74jz46-104" edge="1">
          <mxGeometry width="50" height="50" relative="1" as="geometry">
            <mxPoint x="-614" y="-914" as="sourcePoint" />
            <mxPoint x="-654" y="-954" as="targetPoint" />
          </mxGeometry>
        </mxCell>
        <mxCell id="o2ZF4EV_pDXBrr74jz46-100" value="" style="endArrow=none;html=1;exitX=0.5;exitY=0;exitDx=0;exitDy=0;entryX=1;entryY=1;entryDx=0;entryDy=0;" parent="1" source="o2ZF4EV_pDXBrr74jz46-96" target="o2ZF4EV_pDXBrr74jz46-101" edge="1">
          <mxGeometry width="50" height="50" relative="1" as="geometry">
            <mxPoint x="-511" y="-896" as="sourcePoint" />
            <mxPoint x="-541" y="-946" as="targetPoint" />
          </mxGeometry>
        </mxCell>
        <mxCell id="o2ZF4EV_pDXBrr74jz46-101" value="Name" style="ellipse;whiteSpace=wrap;html=1;align=center;" parent="1" vertex="1">
          <mxGeometry x="-601" y="-986" width="71" height="40" as="geometry" />
        </mxCell>
        <mxCell id="o2ZF4EV_pDXBrr74jz46-102" value="Address" style="ellipse;whiteSpace=wrap;html=1;align=center;" parent="1" vertex="1">
          <mxGeometry x="-471" y="-1004" width="71" height="40" as="geometry" />
        </mxCell>
        <mxCell id="o2ZF4EV_pDXBrr74jz46-103" value="Email" style="ellipse;whiteSpace=wrap;html=1;align=center;" parent="1" vertex="1">
          <mxGeometry x="-381" y="-976" width="71" height="40" as="geometry" />
        </mxCell>
        <mxCell id="o2ZF4EV_pDXBrr74jz46-104" value="ID" style="ellipse;whiteSpace=wrap;html=1;align=center;fontStyle=4;" parent="1" vertex="1">
          <mxGeometry x="-661" y="-946" width="71" height="30" as="geometry" />
        </mxCell>
        <mxCell id="o2ZF4EV_pDXBrr74jz46-105" value="" style="endArrow=none;html=1;exitX=0;exitY=0.5;exitDx=0;exitDy=0;entryX=1;entryY=0.5;entryDx=0;entryDy=0;" parent="1" source="o2ZF4EV_pDXBrr74jz46-96" target="o2ZF4EV_pDXBrr74jz46-106" edge="1">
          <mxGeometry width="50" height="50" relative="1" as="geometry">
            <mxPoint x="-674" y="-1084" as="sourcePoint" />
            <mxPoint x="-611" y="-886" as="targetPoint" />
          </mxGeometry>
        </mxCell>
        <mxCell id="o2ZF4EV_pDXBrr74jz46-106" value="Phone_Number" style="ellipse;whiteSpace=wrap;html=1;align=center;" parent="1" vertex="1">
          <mxGeometry x="-750" y="-906" width="110" height="36" as="geometry" />
        </mxCell>
        <mxCell id="o2ZF4EV_pDXBrr74jz46-107" value="Credit Card" style="whiteSpace=wrap;html=1;align=center;" parent="1" vertex="1">
          <mxGeometry x="-541" y="-616" width="71" height="40" as="geometry" />
        </mxCell>
        <mxCell id="o2ZF4EV_pDXBrr74jz46-108" value="Uses" style="shape=rhombus;perimeter=rhombusPerimeter;whiteSpace=wrap;html=1;align=center;" parent="1" vertex="1">
          <mxGeometry x="-551" y="-774" width="91" height="60" as="geometry" />
        </mxCell>
        <mxCell id="o2ZF4EV_pDXBrr74jz46-109" value="&lt;u&gt;Card_Number&lt;/u&gt;" style="ellipse;whiteSpace=wrap;html=1;align=center;" parent="1" vertex="1">
          <mxGeometry x="-630" y="-696" width="90" height="26" as="geometry" />
        </mxCell>
        <mxCell id="o2ZF4EV_pDXBrr74jz46-110" value="Expiration_Date" style="ellipse;whiteSpace=wrap;html=1;align=center;" parent="1" vertex="1">
          <mxGeometry x="-770" y="-694" width="100" height="44" as="geometry" />
        </mxCell>
        <mxCell id="o2ZF4EV_pDXBrr74jz46-111" value="Billing_Address" style="ellipse;whiteSpace=wrap;html=1;align=center;" parent="1" vertex="1">
          <mxGeometry x="-471" y="-706" width="91" height="36" as="geometry" />
        </mxCell>
        <mxCell id="o2ZF4EV_pDXBrr74jz46-112" value="Name" style="ellipse;whiteSpace=wrap;html=1;align=center;" parent="1" vertex="1">
          <mxGeometry x="-371" y="-686" width="71" height="40" as="geometry" />
        </mxCell>
        <mxCell id="o2ZF4EV_pDXBrr74jz46-113" value="Security_Code" style="ellipse;whiteSpace=wrap;html=1;align=center;" parent="1" vertex="1">
          <mxGeometry x="-730" y="-636" width="105" height="36" as="geometry" />
        </mxCell>
        <mxCell id="o2ZF4EV_pDXBrr74jz46-114" value="Type" style="ellipse;whiteSpace=wrap;html=1;align=center;" parent="1" vertex="1">
          <mxGeometry x="-371" y="-626" width="71" height="40" as="geometry" />
        </mxCell>
        <mxCell id="o2ZF4EV_pDXBrr74jz46-115" value="" style="endArrow=none;html=1;rounded=0;exitX=0.71;exitY=0.975;exitDx=0;exitDy=0;entryX=0.25;entryY=0;entryDx=0;entryDy=0;exitPerimeter=0;" parent="1" source="o2ZF4EV_pDXBrr74jz46-109" target="o2ZF4EV_pDXBrr74jz46-107" edge="1">
          <mxGeometry relative="1" as="geometry">
            <mxPoint x="-704" y="-714" as="sourcePoint" />
            <mxPoint x="-544" y="-714" as="targetPoint" />
          </mxGeometry>
        </mxCell>
        <mxCell id="o2ZF4EV_pDXBrr74jz46-116" value="" style="endArrow=none;html=1;rounded=0;entryX=0;entryY=0.25;entryDx=0;entryDy=0;exitX=1;exitY=0.5;exitDx=0;exitDy=0;exitPerimeter=0;" parent="1" source="o2ZF4EV_pDXBrr74jz46-110" target="o2ZF4EV_pDXBrr74jz46-107" edge="1">
          <mxGeometry relative="1" as="geometry">
            <mxPoint x="-724" y="-684" as="sourcePoint" />
            <mxPoint x="-586.5" y="-674" as="targetPoint" />
          </mxGeometry>
        </mxCell>
        <mxCell id="o2ZF4EV_pDXBrr74jz46-117" value="" style="endArrow=none;html=1;rounded=0;exitX=1;exitY=0.5;exitDx=0;exitDy=0;entryX=0;entryY=0.5;entryDx=0;entryDy=0;" parent="1" source="o2ZF4EV_pDXBrr74jz46-113" target="o2ZF4EV_pDXBrr74jz46-107" edge="1">
          <mxGeometry relative="1" as="geometry">
            <mxPoint x="-694" y="-644" as="sourcePoint" />
            <mxPoint x="-544" y="-714" as="targetPoint" />
          </mxGeometry>
        </mxCell>
        <mxCell id="o2ZF4EV_pDXBrr74jz46-118" value="" style="endArrow=none;html=1;rounded=0;exitX=0.58;exitY=0;exitDx=0;exitDy=0;exitPerimeter=0;entryX=0.5;entryY=1;entryDx=0;entryDy=0;" parent="1" source="o2ZF4EV_pDXBrr74jz46-107" target="o2ZF4EV_pDXBrr74jz46-111" edge="1">
          <mxGeometry relative="1" as="geometry">
            <mxPoint x="-704" y="-714" as="sourcePoint" />
            <mxPoint x="-534" y="-674" as="targetPoint" />
          </mxGeometry>
        </mxCell>
        <mxCell id="o2ZF4EV_pDXBrr74jz46-119" value="" style="endArrow=none;html=1;rounded=0;exitX=1;exitY=0.25;exitDx=0;exitDy=0;entryX=0;entryY=1;entryDx=0;entryDy=0;" parent="1" source="o2ZF4EV_pDXBrr74jz46-107" target="o2ZF4EV_pDXBrr74jz46-112" edge="1">
          <mxGeometry relative="1" as="geometry">
            <mxPoint x="-704" y="-714" as="sourcePoint" />
            <mxPoint x="-544" y="-714" as="targetPoint" />
          </mxGeometry>
        </mxCell>
        <mxCell id="o2ZF4EV_pDXBrr74jz46-120" value="" style="endArrow=none;html=1;rounded=0;exitX=1;exitY=0.5;exitDx=0;exitDy=0;entryX=0;entryY=0.5;entryDx=0;entryDy=0;" parent="1" source="o2ZF4EV_pDXBrr74jz46-107" target="o2ZF4EV_pDXBrr74jz46-114" edge="1">
          <mxGeometry relative="1" as="geometry">
            <mxPoint x="-704" y="-714" as="sourcePoint" />
            <mxPoint x="-544" y="-714" as="targetPoint" />
          </mxGeometry>
        </mxCell>
        <mxCell id="o2ZF4EV_pDXBrr74jz46-121" value="" style="shape=link;html=1;rounded=0;entryX=0.5;entryY=1;entryDx=0;entryDy=0;exitX=0.5;exitY=0;exitDx=0;exitDy=0;" parent="1" source="o2ZF4EV_pDXBrr74jz46-108" target="o2ZF4EV_pDXBrr74jz46-96" edge="1">
          <mxGeometry relative="1" as="geometry">
            <mxPoint x="-704" y="-714" as="sourcePoint" />
            <mxPoint x="-544" y="-714" as="targetPoint" />
          </mxGeometry>
        </mxCell>
        <mxCell id="o2ZF4EV_pDXBrr74jz46-122" value="" style="shape=link;html=1;rounded=0;exitX=0.5;exitY=1;exitDx=0;exitDy=0;entryX=0.5;entryY=0;entryDx=0;entryDy=0;" parent="1" source="o2ZF4EV_pDXBrr74jz46-108" target="o2ZF4EV_pDXBrr74jz46-107" edge="1">
          <mxGeometry relative="1" as="geometry">
            <mxPoint x="-724" y="-694" as="sourcePoint" />
            <mxPoint x="-564" y="-694" as="targetPoint" />
          </mxGeometry>
        </mxCell>
        <mxCell id="o2ZF4EV_pDXBrr74jz46-123" value="Online Reservation" style="whiteSpace=wrap;html=1;align=center;" parent="1" vertex="1">
          <mxGeometry x="-253.5" y="-507" width="86" height="37.5" as="geometry" />
        </mxCell>
        <mxCell id="o2ZF4EV_pDXBrr74jz46-125" value="Makes" style="shape=rhombus;perimeter=rhombusPerimeter;whiteSpace=wrap;html=1;align=center;" parent="1" vertex="1">
          <mxGeometry x="-258.5" y="-702" width="91" height="60" as="geometry" />
        </mxCell>
        <mxCell id="o2ZF4EV_pDXBrr74jz46-127" value="Transaction_Date" style="ellipse;whiteSpace=wrap;html=1;align=center;" parent="1" vertex="1">
          <mxGeometry x="-200" y="-600" width="130" height="40" as="geometry" />
        </mxCell>
        <mxCell id="o2ZF4EV_pDXBrr74jz46-128" value="Amount_Paid" style="ellipse;whiteSpace=wrap;html=1;align=center;" parent="1" vertex="1">
          <mxGeometry x="-410" y="-535" width="85" height="37.5" as="geometry" />
        </mxCell>
        <mxCell id="o2ZF4EV_pDXBrr74jz46-129" value="Invoice_Number" style="ellipse;whiteSpace=wrap;html=1;align=center;fontStyle=4;" parent="1" vertex="1">
          <mxGeometry x="-348" y="-582.5" width="106" height="42.5" as="geometry" />
        </mxCell>
        <mxCell id="o2ZF4EV_pDXBrr74jz46-130" value="" style="endArrow=none;html=1;rounded=0;exitX=1;exitY=1;exitDx=0;exitDy=0;entryX=0;entryY=0.5;entryDx=0;entryDy=0;" parent="1" source="o2ZF4EV_pDXBrr74jz46-128" target="o2ZF4EV_pDXBrr74jz46-123" edge="1">
          <mxGeometry relative="1" as="geometry">
            <mxPoint x="-566" y="-497.5" as="sourcePoint" />
            <mxPoint x="-406" y="-497.5" as="targetPoint" />
          </mxGeometry>
        </mxCell>
        <mxCell id="o2ZF4EV_pDXBrr74jz46-131" value="" style="endArrow=none;html=1;rounded=0;entryX=0.5;entryY=1;entryDx=0;entryDy=0;exitX=0.25;exitY=0;exitDx=0;exitDy=0;" parent="1" source="o2ZF4EV_pDXBrr74jz46-123" target="o2ZF4EV_pDXBrr74jz46-129" edge="1">
          <mxGeometry relative="1" as="geometry">
            <mxPoint x="-566" y="-497.5" as="sourcePoint" />
            <mxPoint x="-406" y="-497.5" as="targetPoint" />
          </mxGeometry>
        </mxCell>
        <mxCell id="o2ZF4EV_pDXBrr74jz46-132" value="" style="endArrow=none;html=1;rounded=0;entryX=0.5;entryY=1;entryDx=0;entryDy=0;" parent="1" source="o2ZF4EV_pDXBrr74jz46-123" target="o2ZF4EV_pDXBrr74jz46-127" edge="1">
          <mxGeometry relative="1" as="geometry">
            <mxPoint x="-566" y="-497.5" as="sourcePoint" />
            <mxPoint x="-89.79599418202406" y="-562.9556749087992" as="targetPoint" />
          </mxGeometry>
        </mxCell>
        <mxCell id="o2ZF4EV_pDXBrr74jz46-137" value="" style="shape=link;html=1;rounded=0;entryX=0.5;entryY=0;entryDx=0;entryDy=0;exitX=0.5;exitY=1;exitDx=0;exitDy=0;" parent="1" source="o2ZF4EV_pDXBrr74jz46-123" target="o2ZF4EV_pDXBrr74jz46-68" edge="1">
          <mxGeometry relative="1" as="geometry">
            <mxPoint x="-150" y="-481" as="sourcePoint" />
            <mxPoint x="-151" y="-400" as="targetPoint" />
            <Array as="points">
              <mxPoint x="-210" y="-420" />
            </Array>
          </mxGeometry>
        </mxCell>
        <mxCell id="o2ZF4EV_pDXBrr74jz46-142" value="" style="endArrow=none;html=1;rounded=0;entryX=0.5;entryY=1;entryDx=0;entryDy=0;exitX=0.75;exitY=0;exitDx=0;exitDy=0;" parent="1" source="o2ZF4EV_pDXBrr74jz46-96" target="o2ZF4EV_pDXBrr74jz46-102" edge="1">
          <mxGeometry relative="1" as="geometry">
            <mxPoint x="-621" y="-786" as="sourcePoint" />
            <mxPoint x="-451" y="-826" as="targetPoint" />
          </mxGeometry>
        </mxCell>
        <mxCell id="o2ZF4EV_pDXBrr74jz46-145" value="Reserved" style="shape=rhombus;perimeter=rhombusPerimeter;whiteSpace=wrap;html=1;align=center;" parent="1" vertex="1">
          <mxGeometry x="460" y="-400" width="120" height="60" as="geometry" />
        </mxCell>
        <mxCell id="o2ZF4EV_pDXBrr74jz46-148" value="" style="endArrow=none;html=1;rounded=0;exitX=0.5;exitY=1;exitDx=0;exitDy=0;entryX=0.5;entryY=0;entryDx=0;entryDy=0;" parent="1" edge="1" target="o2ZF4EV_pDXBrr74jz46-150" source="iuMVXom3aVEvyuveYDUm-55">
          <mxGeometry relative="1" as="geometry">
            <mxPoint x="660" y="-330" as="sourcePoint" />
            <mxPoint x="755" y="-300" as="targetPoint" />
          </mxGeometry>
        </mxCell>
        <mxCell id="o2ZF4EV_pDXBrr74jz46-150" value="Includes" style="shape=rhombus;perimeter=rhombusPerimeter;whiteSpace=wrap;html=1;align=center;" parent="1" vertex="1">
          <mxGeometry x="600" y="-330" width="120" height="60" as="geometry" />
        </mxCell>
        <mxCell id="o2ZF4EV_pDXBrr74jz46-151" value="" style="endArrow=none;html=1;rounded=0;exitX=0.5;exitY=1;exitDx=0;exitDy=0;entryX=0.75;entryY=0;entryDx=0;entryDy=0;" parent="1" target="ERW8R41ELRZwyAEDq_bC-23" edge="1" source="o2ZF4EV_pDXBrr74jz46-150">
          <mxGeometry relative="1" as="geometry">
            <mxPoint x="600" y="-260" as="sourcePoint" />
            <mxPoint x="660" y="-90" as="targetPoint" />
          </mxGeometry>
        </mxCell>
        <mxCell id="o2ZF4EV_pDXBrr74jz46-152" value="" style="endArrow=none;html=1;rounded=0;exitX=0.5;exitY=1;exitDx=0;exitDy=0;entryX=0.5;entryY=0;entryDx=0;entryDy=0;" parent="1" edge="1" target="o2ZF4EV_pDXBrr74jz46-153" source="iuMVXom3aVEvyuveYDUm-73">
          <mxGeometry relative="1" as="geometry">
            <mxPoint x="820" y="-390" as="sourcePoint" />
            <mxPoint x="820" y="-310" as="targetPoint" />
          </mxGeometry>
        </mxCell>
        <mxCell id="o2ZF4EV_pDXBrr74jz46-153" value="Offers" style="shape=rhombus;perimeter=rhombusPerimeter;whiteSpace=wrap;html=1;align=center;" parent="1" vertex="1">
          <mxGeometry x="780" y="-297.5" width="120" height="60" as="geometry" />
        </mxCell>
        <mxCell id="o2ZF4EV_pDXBrr74jz46-154" value="" style="endArrow=none;html=1;rounded=0;entryX=0.5;entryY=1;entryDx=0;entryDy=0;exitX=1;exitY=0.5;exitDx=0;exitDy=0;" parent="1" source="ERW8R41ELRZwyAEDq_bC-23" target="o2ZF4EV_pDXBrr74jz46-153" edge="1">
          <mxGeometry relative="1" as="geometry">
            <mxPoint x="455" y="-87.5" as="sourcePoint" />
            <mxPoint x="790" y="80" as="targetPoint" />
            <Array as="points">
              <mxPoint x="840" y="-80" />
            </Array>
          </mxGeometry>
        </mxCell>
        <mxCell id="o2ZF4EV_pDXBrr74jz46-155" value="" style="shape=link;html=1;rounded=0;entryX=0.5;entryY=1;entryDx=0;entryDy=0;exitX=0;exitY=0.75;exitDx=0;exitDy=0;" parent="1" edge="1" target="o2ZF4EV_pDXBrr74jz46-68" source="ERW8R41ELRZwyAEDq_bC-23">
          <mxGeometry relative="1" as="geometry">
            <mxPoint x="325" y="-75" as="sourcePoint" />
            <mxPoint x="-242" y="-210" as="targetPoint" />
            <Array as="points">
              <mxPoint x="-210" y="-75" />
            </Array>
          </mxGeometry>
        </mxCell>
        <mxCell id="zCryxQ6nis98nsJElTox-2" value="" style="endArrow=none;html=1;rounded=0;entryX=0;entryY=0.5;entryDx=0;entryDy=0;" parent="1" edge="1">
          <mxGeometry relative="1" as="geometry">
            <mxPoint x="-470" y="-876.5" as="sourcePoint" />
            <mxPoint x="-386" y="-876" as="targetPoint" />
          </mxGeometry>
        </mxCell>
        <mxCell id="zCryxQ6nis98nsJElTox-10" value="" style="endArrow=none;html=1;rounded=0;entryX=0.34;entryY=0;entryDx=0;entryDy=0;entryPerimeter=0;" parent="1" edge="1">
          <mxGeometry relative="1" as="geometry">
            <mxPoint x="-90" y="-1020" as="sourcePoint" />
            <mxPoint x="-56" y="-976" as="targetPoint" />
          </mxGeometry>
        </mxCell>
        <mxCell id="o2ZF4EV_pDXBrr74jz46-157" value="Comment" style="ellipse;whiteSpace=wrap;html=1;align=center;" parent="1" vertex="1">
          <mxGeometry x="-10" y="-1060" width="100" height="40" as="geometry" />
        </mxCell>
        <mxCell id="o2ZF4EV_pDXBrr74jz46-158" value="" style="endArrow=none;html=1;rounded=0;entryX=0.5;entryY=1;entryDx=0;entryDy=0;" parent="1" target="o2ZF4EV_pDXBrr74jz46-157" edge="1">
          <mxGeometry relative="1" as="geometry">
            <mxPoint x="-15" y="-976" as="sourcePoint" />
            <mxPoint x="50" y="-1020" as="targetPoint" />
          </mxGeometry>
        </mxCell>
        <mxCell id="zCryxQ6nis98nsJElTox-12" value="Review" style="shape=ext;margin=3;double=1;whiteSpace=wrap;html=1;align=center;" parent="1" vertex="1">
          <mxGeometry x="-90" y="-976" width="100" height="40" as="geometry" />
        </mxCell>
        <mxCell id="zCryxQ6nis98nsJElTox-13" value="&lt;span style=&quot;border-bottom: 1px dotted&quot;&gt;Review_ID&lt;/span&gt;" style="ellipse;whiteSpace=wrap;html=1;align=center;" parent="1" vertex="1">
          <mxGeometry x="-160" y="-1060" width="100" height="40" as="geometry" />
        </mxCell>
        <mxCell id="zCryxQ6nis98nsJElTox-14" value="Writes" style="shape=rhombus;double=1;perimeter=rhombusPerimeter;whiteSpace=wrap;html=1;align=center;" parent="1" vertex="1">
          <mxGeometry x="-395" y="-906" width="120" height="60" as="geometry" />
        </mxCell>
        <mxCell id="zCryxQ6nis98nsJElTox-15" value="Writes_For" style="shape=rhombus;double=1;perimeter=rhombusPerimeter;whiteSpace=wrap;html=1;align=center;" parent="1" vertex="1">
          <mxGeometry x="100" y="-850" width="120" height="60" as="geometry" />
        </mxCell>
        <mxCell id="zCryxQ6nis98nsJElTox-16" value="" style="shape=link;html=1;rounded=0;exitX=0.5;exitY=1;exitDx=0;exitDy=0;" parent="1" source="zCryxQ6nis98nsJElTox-12" edge="1">
          <mxGeometry relative="1" as="geometry">
            <mxPoint x="-140" y="-850" as="sourcePoint" />
            <mxPoint x="-40" y="-880" as="targetPoint" />
          </mxGeometry>
        </mxCell>
        <mxCell id="zCryxQ6nis98nsJElTox-18" value="d" style="ellipse;whiteSpace=wrap;html=1;aspect=fixed;" parent="1" vertex="1">
          <mxGeometry x="-60" y="-880" width="40" height="40" as="geometry" />
        </mxCell>
        <mxCell id="zCryxQ6nis98nsJElTox-19" value="" style="endArrow=none;html=1;entryX=0;entryY=1;entryDx=0;entryDy=0;exitX=0.5;exitY=0;exitDx=0;exitDy=0;" parent="1" source="zCryxQ6nis98nsJElTox-23" target="zCryxQ6nis98nsJElTox-18" edge="1">
          <mxGeometry width="50" height="50" relative="1" as="geometry">
            <mxPoint x="-170" y="-800" as="sourcePoint" />
            <mxPoint x="-55" y="-850" as="targetPoint" />
          </mxGeometry>
        </mxCell>
        <mxCell id="zCryxQ6nis98nsJElTox-21" value="" style="endArrow=none;html=1;entryX=0.5;entryY=1;entryDx=0;entryDy=0;exitX=0.5;exitY=0;exitDx=0;exitDy=0;" parent="1" source="zCryxQ6nis98nsJElTox-24" target="zCryxQ6nis98nsJElTox-18" edge="1">
          <mxGeometry width="50" height="50" relative="1" as="geometry">
            <mxPoint x="-40" y="-800" as="sourcePoint" />
            <mxPoint x="-30" y="-840" as="targetPoint" />
          </mxGeometry>
        </mxCell>
        <mxCell id="zCryxQ6nis98nsJElTox-23" value="Room&amp;nbsp;" style="whiteSpace=wrap;html=1;align=center;" parent="1" vertex="1">
          <mxGeometry x="-230" y="-800" width="80" height="30" as="geometry" />
        </mxCell>
        <mxCell id="zCryxQ6nis98nsJElTox-24" value="Service" style="whiteSpace=wrap;html=1;align=center;" parent="1" vertex="1">
          <mxGeometry x="-90" y="-800" width="90" height="30" as="geometry" />
        </mxCell>
        <mxCell id="zCryxQ6nis98nsJElTox-25" value="Breakfast" style="whiteSpace=wrap;html=1;align=center;" parent="1" vertex="1">
          <mxGeometry x="20" y="-800" width="100" height="30" as="geometry" />
        </mxCell>
        <mxCell id="zCryxQ6nis98nsJElTox-26" value="" style="shape=requiredInterface;html=1;verticalLabelPosition=bottom;direction=west;" parent="1" vertex="1">
          <mxGeometry x="-140" y="-830" width="10" height="20" as="geometry" />
        </mxCell>
        <mxCell id="zCryxQ6nis98nsJElTox-27" value="" style="shape=requiredInterface;html=1;verticalLabelPosition=bottom;direction=south;" parent="1" vertex="1">
          <mxGeometry x="-50" y="-825" width="20" height="10" as="geometry" />
        </mxCell>
        <mxCell id="zCryxQ6nis98nsJElTox-29" value="" style="shape=requiredInterface;html=1;verticalLabelPosition=bottom;" parent="1" vertex="1">
          <mxGeometry x="10" y="-835" width="10" height="20" as="geometry" />
        </mxCell>
        <mxCell id="zCryxQ6nis98nsJElTox-31" value="" style="endArrow=none;html=1;rounded=0;entryX=0.25;entryY=0;entryDx=0;entryDy=0;exitX=1;exitY=1;exitDx=0;exitDy=0;" parent="1" source="zCryxQ6nis98nsJElTox-18" target="zCryxQ6nis98nsJElTox-25" edge="1">
          <mxGeometry relative="1" as="geometry">
            <mxPoint x="-20" y="-850" as="sourcePoint" />
            <mxPoint x="40" y="-850" as="targetPoint" />
          </mxGeometry>
        </mxCell>
        <mxCell id="zCryxQ6nis98nsJElTox-32" value="" style="shape=link;html=1;rounded=0;entryX=0;entryY=0.5;entryDx=0;entryDy=0;exitX=0.5;exitY=0;exitDx=0;exitDy=0;" parent="1" source="zCryxQ6nis98nsJElTox-14" target="zCryxQ6nis98nsJElTox-12" edge="1">
          <mxGeometry relative="1" as="geometry">
            <mxPoint x="-330" y="-906" as="sourcePoint" />
            <mxPoint x="-170" y="-906" as="targetPoint" />
          </mxGeometry>
        </mxCell>
        <mxCell id="zCryxQ6nis98nsJElTox-34" value="" style="shape=link;html=1;rounded=0;entryX=0.5;entryY=0;entryDx=0;entryDy=0;" parent="1" target="zCryxQ6nis98nsJElTox-15" edge="1">
          <mxGeometry relative="1" as="geometry">
            <mxPoint x="10" y="-960" as="sourcePoint" />
            <mxPoint x="170" y="-960" as="targetPoint" />
          </mxGeometry>
        </mxCell>
        <mxCell id="FBJkLnubSrDYwa1fIIq6-1" value="" style="shape=link;html=1;rounded=0;entryX=0;entryY=1;entryDx=0;entryDy=0;" parent="1" target="iuMVXom3aVEvyuveYDUm-32" edge="1">
          <mxGeometry relative="1" as="geometry">
            <mxPoint x="220" y="-650" as="sourcePoint" />
            <mxPoint x="380" y="-650" as="targetPoint" />
          </mxGeometry>
        </mxCell>
        <mxCell id="FBJkLnubSrDYwa1fIIq6-3" value="" style="shape=link;html=1;rounded=0;entryX=0.5;entryY=0;entryDx=0;entryDy=0;exitX=1;exitY=1;exitDx=0;exitDy=0;" parent="1" source="iuMVXom3aVEvyuveYDUm-32" target="iuMVXom3aVEvyuveYDUm-53" edge="1">
          <mxGeometry relative="1" as="geometry">
            <mxPoint x="450" y="-700" as="sourcePoint" />
            <mxPoint x="610" y="-700" as="targetPoint" />
          </mxGeometry>
        </mxCell>
        <mxCell id="FBJkLnubSrDYwa1fIIq6-5" value="" style="shape=link;html=1;rounded=0;exitX=1;exitY=0.5;exitDx=0;exitDy=0;entryX=0.5;entryY=0;entryDx=0;entryDy=0;" parent="1" source="iuMVXom3aVEvyuveYDUm-32" target="iuMVXom3aVEvyuveYDUm-64" edge="1">
          <mxGeometry relative="1" as="geometry">
            <mxPoint x="560" y="-490" as="sourcePoint" />
            <mxPoint x="720" y="-490" as="targetPoint" />
            <Array as="points">
              <mxPoint x="840" y="-725" />
            </Array>
          </mxGeometry>
        </mxCell>
        <mxCell id="FBJkLnubSrDYwa1fIIq6-7" value="(10,N)" style="text;html=1;align=center;verticalAlign=middle;resizable=0;points=[];autosize=1;" parent="1" vertex="1">
          <mxGeometry x="195" y="-690" width="50" height="20" as="geometry" />
        </mxCell>
        <mxCell id="FBJkLnubSrDYwa1fIIq6-8" value="(1,1)" style="text;html=1;align=center;verticalAlign=middle;resizable=0;points=[];autosize=1;" parent="1" vertex="1">
          <mxGeometry x="172.5" y="-590" width="40" height="20" as="geometry" />
        </mxCell>
        <mxCell id="FBJkLnubSrDYwa1fIIq6-9" value="(1,N)" style="text;html=1;align=center;verticalAlign=middle;resizable=0;points=[];autosize=1;" parent="1" vertex="1">
          <mxGeometry x="540" y="-693" width="40" height="20" as="geometry" />
        </mxCell>
        <mxCell id="FBJkLnubSrDYwa1fIIq6-10" value="(1,1)" style="text;html=1;align=center;verticalAlign=middle;resizable=0;points=[];autosize=1;" parent="1" vertex="1">
          <mxGeometry x="610" y="-640" width="40" height="20" as="geometry" />
        </mxCell>
        <mxCell id="FBJkLnubSrDYwa1fIIq6-11" value="(1,N)" style="text;html=1;align=center;verticalAlign=middle;resizable=0;points=[];autosize=1;" parent="1" vertex="1">
          <mxGeometry x="780" y="-600" width="40" height="20" as="geometry" />
        </mxCell>
        <mxCell id="FBJkLnubSrDYwa1fIIq6-12" value="(1,1)" style="text;html=1;align=center;verticalAlign=middle;resizable=0;points=[];autosize=1;" parent="1" vertex="1">
          <mxGeometry x="790" y="-526.25" width="40" height="20" as="geometry" />
        </mxCell>
        <mxCell id="FBJkLnubSrDYwa1fIIq6-14" value="N" style="text;html=1;align=center;verticalAlign=middle;resizable=0;points=[];autosize=1;" parent="1" vertex="1">
          <mxGeometry x="-210" y="-630" width="20" height="20" as="geometry" />
        </mxCell>
        <mxCell id="FBJkLnubSrDYwa1fIIq6-16" value="N" style="text;html=1;align=center;verticalAlign=middle;resizable=0;points=[];autosize=1;" parent="1" vertex="1">
          <mxGeometry x="-207" y="-277.5" width="20" height="20" as="geometry" />
        </mxCell>
        <mxCell id="FBJkLnubSrDYwa1fIIq6-17" value="M" style="text;html=1;align=center;verticalAlign=middle;resizable=0;points=[];autosize=1;" parent="1" vertex="1">
          <mxGeometry x="-212" y="-465" width="30" height="20" as="geometry" />
        </mxCell>
        <mxCell id="FBJkLnubSrDYwa1fIIq6-18" value="(1,M)" style="text;html=1;align=center;verticalAlign=middle;resizable=0;points=[];autosize=1;" parent="1" vertex="1">
          <mxGeometry x="-252" y="-277.5" width="40" height="20" as="geometry" />
        </mxCell>
        <mxCell id="FBJkLnubSrDYwa1fIIq6-19" value="(1,N)" style="text;html=1;align=center;verticalAlign=middle;resizable=0;points=[];autosize=1;" parent="1" vertex="1">
          <mxGeometry x="-257" y="-465" width="40" height="20" as="geometry" />
        </mxCell>
        <mxCell id="FBJkLnubSrDYwa1fIIq6-26" value="N" style="text;html=1;align=center;verticalAlign=middle;resizable=0;points=[];autosize=1;" parent="1" vertex="1">
          <mxGeometry x="-500" y="-710" width="20" height="20" as="geometry" />
        </mxCell>
        <mxCell id="FBJkLnubSrDYwa1fIIq6-27" value="1" style="text;html=1;align=center;verticalAlign=middle;resizable=0;points=[];autosize=1;" parent="1" vertex="1">
          <mxGeometry x="-500" y="-800" width="20" height="20" as="geometry" />
        </mxCell>
        <mxCell id="FBJkLnubSrDYwa1fIIq6-28" value="(1,1)" style="text;html=1;align=center;verticalAlign=middle;resizable=0;points=[];autosize=1;" parent="1" vertex="1">
          <mxGeometry x="-551" y="-710" width="40" height="20" as="geometry" />
        </mxCell>
        <mxCell id="FBJkLnubSrDYwa1fIIq6-29" value="(1,N)" style="text;html=1;align=center;verticalAlign=middle;resizable=0;points=[];autosize=1;" parent="1" vertex="1">
          <mxGeometry x="-551" y="-795" width="40" height="20" as="geometry" />
        </mxCell>
        <mxCell id="FBJkLnubSrDYwa1fIIq6-30" value="" style="shape=link;html=1;rounded=0;entryX=0.5;entryY=0;entryDx=0;entryDy=0;" parent="1" target="o2ZF4EV_pDXBrr74jz46-125" edge="1">
          <mxGeometry relative="1" as="geometry">
            <mxPoint x="-470" y="-860" as="sourcePoint" />
            <mxPoint x="-310" y="-860" as="targetPoint" />
          </mxGeometry>
        </mxCell>
        <mxCell id="FBJkLnubSrDYwa1fIIq6-31" value="1" style="resizable=0;html=1;align=right;verticalAlign=bottom;" parent="FBJkLnubSrDYwa1fIIq6-30" connectable="0" vertex="1">
          <mxGeometry x="1" relative="1" as="geometry">
            <mxPoint x="2.73" y="-4.17" as="offset" />
          </mxGeometry>
        </mxCell>
        <mxCell id="FBJkLnubSrDYwa1fIIq6-32" value="" style="shape=link;html=1;rounded=0;entryX=0.5;entryY=0;entryDx=0;entryDy=0;exitX=0.5;exitY=1;exitDx=0;exitDy=0;" parent="1" source="o2ZF4EV_pDXBrr74jz46-125" target="o2ZF4EV_pDXBrr74jz46-123" edge="1">
          <mxGeometry relative="1" as="geometry">
            <mxPoint x="-210" y="-640" as="sourcePoint" />
            <mxPoint x="-50" y="-650" as="targetPoint" />
          </mxGeometry>
        </mxCell>
        <mxCell id="FBJkLnubSrDYwa1fIIq6-34" value="1" style="text;html=1;align=center;verticalAlign=middle;resizable=0;points=[];autosize=1;" parent="1" vertex="1">
          <mxGeometry x="-420" y="-900" width="20" height="20" as="geometry" />
        </mxCell>
        <mxCell id="FBJkLnubSrDYwa1fIIq6-35" value="N" style="text;html=1;align=center;verticalAlign=middle;resizable=0;points=[];autosize=1;" parent="1" vertex="1">
          <mxGeometry x="-310" y="-940" width="20" height="20" as="geometry" />
        </mxCell>
        <mxCell id="FBJkLnubSrDYwa1fIIq6-36" value="(1,1)" style="text;html=1;align=center;verticalAlign=middle;resizable=0;points=[];autosize=1;" parent="1" vertex="1">
          <mxGeometry x="-293.5" y="-910" width="40" height="20" as="geometry" />
        </mxCell>
        <mxCell id="FBJkLnubSrDYwa1fIIq6-37" value="(0,N)" style="text;html=1;align=center;verticalAlign=middle;resizable=0;points=[];autosize=1;" parent="1" vertex="1">
          <mxGeometry x="-440" y="-876" width="40" height="20" as="geometry" />
        </mxCell>
        <mxCell id="FBJkLnubSrDYwa1fIIq6-38" value="" style="endArrow=none;html=1;rounded=0;exitX=1;exitY=0.5;exitDx=0;exitDy=0;entryX=0;entryY=0.5;entryDx=0;entryDy=0;" parent="1" source="zCryxQ6nis98nsJElTox-15" target="iuMVXom3aVEvyuveYDUm-32" edge="1">
          <mxGeometry relative="1" as="geometry">
            <mxPoint x="-190" y="-750" as="sourcePoint" />
            <mxPoint x="-30" y="-750" as="targetPoint" />
          </mxGeometry>
        </mxCell>
        <mxCell id="FBJkLnubSrDYwa1fIIq6-39" value="N" style="text;html=1;align=center;verticalAlign=middle;resizable=0;points=[];autosize=1;" parent="1" vertex="1">
          <mxGeometry x="155" y="-880" width="20" height="20" as="geometry" />
        </mxCell>
        <mxCell id="FBJkLnubSrDYwa1fIIq6-40" value="1" style="text;html=1;align=center;verticalAlign=middle;resizable=0;points=[];autosize=1;" parent="1" vertex="1">
          <mxGeometry x="230" y="-830" width="20" height="20" as="geometry" />
        </mxCell>
        <mxCell id="FBJkLnubSrDYwa1fIIq6-41" value="(0,N)" style="text;html=1;align=center;verticalAlign=middle;resizable=0;points=[];autosize=1;" parent="1" vertex="1">
          <mxGeometry x="200" y="-810" width="40" height="20" as="geometry" />
        </mxCell>
        <mxCell id="FBJkLnubSrDYwa1fIIq6-42" value="(1,1)" style="text;html=1;align=center;verticalAlign=middle;resizable=0;points=[];autosize=1;" parent="1" vertex="1">
          <mxGeometry x="100" y="-866" width="40" height="20" as="geometry" />
        </mxCell>
        <mxCell id="ERW8R41ELRZwyAEDq_bC-1" value="Check_In_Dates" style="ellipse;whiteSpace=wrap;html=1;align=center;" vertex="1" parent="1">
          <mxGeometry x="730" y="-140" width="100" height="30" as="geometry" />
        </mxCell>
        <mxCell id="ERW8R41ELRZwyAEDq_bC-2" value="Check_Out_Dates" style="ellipse;whiteSpace=wrap;html=1;align=center;" vertex="1" parent="1">
          <mxGeometry x="540" y="-160" width="110" height="30" as="geometry" />
        </mxCell>
        <mxCell id="ERW8R41ELRZwyAEDq_bC-3" value="Days_Reserved" style="ellipse;whiteSpace=wrap;html=1;align=center;dashed=1;" vertex="1" parent="1">
          <mxGeometry x="350" y="-130" width="100" height="40" as="geometry" />
        </mxCell>
        <mxCell id="ERW8R41ELRZwyAEDq_bC-4" value="" style="endArrow=none;html=1;rounded=0;exitX=0;exitY=1;exitDx=0;exitDy=0;entryX=1;entryY=0;entryDx=0;entryDy=0;" edge="1" parent="1" source="ERW8R41ELRZwyAEDq_bC-1" target="ERW8R41ELRZwyAEDq_bC-23">
          <mxGeometry relative="1" as="geometry">
            <mxPoint x="330" y="-190" as="sourcePoint" />
            <mxPoint x="369.98" y="-100" as="targetPoint" />
          </mxGeometry>
        </mxCell>
        <mxCell id="ERW8R41ELRZwyAEDq_bC-5" value="" style="endArrow=none;html=1;rounded=0;exitX=0.5;exitY=1;exitDx=0;exitDy=0;" edge="1" parent="1" source="ERW8R41ELRZwyAEDq_bC-2" target="ERW8R41ELRZwyAEDq_bC-23">
          <mxGeometry relative="1" as="geometry">
            <mxPoint x="250" y="-170" as="sourcePoint" />
            <mxPoint x="357.5" y="-100" as="targetPoint" />
          </mxGeometry>
        </mxCell>
        <mxCell id="ERW8R41ELRZwyAEDq_bC-6" value="" style="endArrow=none;html=1;rounded=0;entryX=0;entryY=0;entryDx=0;entryDy=0;exitX=1;exitY=0.5;exitDx=0;exitDy=0;" edge="1" parent="1" source="ERW8R41ELRZwyAEDq_bC-3" target="ERW8R41ELRZwyAEDq_bC-23">
          <mxGeometry relative="1" as="geometry">
            <mxPoint x="220" y="-110" as="sourcePoint" />
            <mxPoint x="325" y="-87.5" as="targetPoint" />
          </mxGeometry>
        </mxCell>
        <mxCell id="ERW8R41ELRZwyAEDq_bC-7" value="" style="shape=link;html=1;rounded=0;entryX=0.5;entryY=0;entryDx=0;entryDy=0;exitX=1;exitY=0.5;exitDx=0;exitDy=0;" edge="1" parent="1" source="iuMVXom3aVEvyuveYDUm-22" target="o2ZF4EV_pDXBrr74jz46-145">
          <mxGeometry relative="1" as="geometry">
            <mxPoint x="230" y="-455.5" as="sourcePoint" />
            <mxPoint x="390" y="-455.5" as="targetPoint" />
            <Array as="points">
              <mxPoint x="430" y="-470" />
            </Array>
          </mxGeometry>
        </mxCell>
        <mxCell id="ERW8R41ELRZwyAEDq_bC-10" value="" style="shape=link;html=1;rounded=0;entryX=0.143;entryY=0.05;entryDx=0;entryDy=0;entryPerimeter=0;" edge="1" parent="1" source="o2ZF4EV_pDXBrr74jz46-145" target="ERW8R41ELRZwyAEDq_bC-23">
          <mxGeometry relative="1" as="geometry">
            <mxPoint x="390" y="-295" as="sourcePoint" />
            <mxPoint x="521" y="-98" as="targetPoint" />
          </mxGeometry>
        </mxCell>
        <mxCell id="o2ZF4EV_pDXBrr74jz46-15" value="d" style="ellipse;whiteSpace=wrap;html=1;aspect=fixed;" parent="1" vertex="1">
          <mxGeometry x="180" y="-410" width="40" height="40" as="geometry" />
        </mxCell>
        <mxCell id="ERW8R41ELRZwyAEDq_bC-14" value="" style="shape=link;html=1;rounded=0;entryX=0.5;entryY=0;entryDx=0;entryDy=0;" edge="1" parent="1" target="o2ZF4EV_pDXBrr74jz46-15">
          <mxGeometry relative="1" as="geometry">
            <mxPoint x="200" y="-460" as="sourcePoint" />
            <mxPoint x="250" y="-410" as="targetPoint" />
          </mxGeometry>
        </mxCell>
        <mxCell id="ERW8R41ELRZwyAEDq_bC-18" value="" style="endArrow=none;html=1;entryX=1;entryY=1;entryDx=0;entryDy=0;exitX=0.5;exitY=0;exitDx=0;exitDy=0;" edge="1" parent="1" source="o2ZF4EV_pDXBrr74jz46-19" target="o2ZF4EV_pDXBrr74jz46-15">
          <mxGeometry width="50" height="50" relative="1" as="geometry">
            <mxPoint x="250" y="-330" as="sourcePoint" />
            <mxPoint x="235" y="-340" as="targetPoint" />
          </mxGeometry>
        </mxCell>
        <mxCell id="ERW8R41ELRZwyAEDq_bC-19" value="" style="shape=requiredInterface;html=1;verticalLabelPosition=bottom;direction=east;" vertex="1" parent="1">
          <mxGeometry x="235" y="-365" width="10" height="20" as="geometry" />
        </mxCell>
        <mxCell id="ERW8R41ELRZwyAEDq_bC-21" value="" style="shape=requiredInterface;html=1;verticalLabelPosition=bottom;direction=west;" vertex="1" parent="1">
          <mxGeometry x="155" y="-365" width="10" height="20" as="geometry" />
        </mxCell>
        <mxCell id="ERW8R41ELRZwyAEDq_bC-23" value="Room Reservation" style="shape=ext;margin=3;double=1;whiteSpace=wrap;html=1;align=center;" vertex="1" parent="1">
          <mxGeometry x="495" y="-100" width="230" height="40" as="geometry" />
        </mxCell>
        <mxCell id="ERW8R41ELRZwyAEDq_bC-27" value="1" style="text;html=1;align=center;verticalAlign=middle;resizable=0;points=[];autosize=1;" vertex="1" parent="1">
          <mxGeometry x="517.5" y="-430" width="20" height="20" as="geometry" />
        </mxCell>
        <mxCell id="ERW8R41ELRZwyAEDq_bC-28" value="N" style="text;html=1;align=center;verticalAlign=middle;resizable=0;points=[];autosize=1;" vertex="1" parent="1">
          <mxGeometry x="537.5" y="-330" width="20" height="20" as="geometry" />
        </mxCell>
        <mxCell id="ERW8R41ELRZwyAEDq_bC-29" value="(1,N)" style="text;html=1;align=center;verticalAlign=middle;resizable=0;points=[];autosize=1;" vertex="1" parent="1">
          <mxGeometry x="450" y="-420" width="40" height="20" as="geometry" />
        </mxCell>
        <mxCell id="ERW8R41ELRZwyAEDq_bC-30" value="(1,1)" style="text;html=1;align=center;verticalAlign=middle;resizable=0;points=[];autosize=1;" vertex="1" parent="1">
          <mxGeometry x="477.5" y="-330" width="40" height="20" as="geometry" />
        </mxCell>
        <mxCell id="ERW8R41ELRZwyAEDq_bC-37" value="M" style="text;html=1;align=center;verticalAlign=middle;resizable=0;points=[];autosize=1;" vertex="1" parent="1">
          <mxGeometry x="660" y="-355" width="30" height="20" as="geometry" />
        </mxCell>
        <mxCell id="ERW8R41ELRZwyAEDq_bC-38" value="N" style="text;html=1;align=center;verticalAlign=middle;resizable=0;points=[];autosize=1;" vertex="1" parent="1">
          <mxGeometry x="660" y="-257.5" width="20" height="20" as="geometry" />
        </mxCell>
        <mxCell id="ERW8R41ELRZwyAEDq_bC-39" value="(0,M)" style="text;html=1;align=center;verticalAlign=middle;resizable=0;points=[];autosize=1;" vertex="1" parent="1">
          <mxGeometry x="610" y="-257.5" width="40" height="20" as="geometry" />
        </mxCell>
        <mxCell id="ERW8R41ELRZwyAEDq_bC-40" value="(0,N)" style="text;html=1;align=center;verticalAlign=middle;resizable=0;points=[];autosize=1;" vertex="1" parent="1">
          <mxGeometry x="620" y="-355" width="40" height="20" as="geometry" />
        </mxCell>
        <mxCell id="ERW8R41ELRZwyAEDq_bC-41" value="Name" style="ellipse;whiteSpace=wrap;html=1;align=center;" vertex="1" parent="1">
          <mxGeometry x="438" y="-514" width="102" height="24" as="geometry" />
        </mxCell>
        <mxCell id="ERW8R41ELRZwyAEDq_bC-42" value="" style="endArrow=none;html=1;rounded=0;entryX=0;entryY=0.5;entryDx=0;entryDy=0;exitX=0.5;exitY=1;exitDx=0;exitDy=0;" edge="1" parent="1" source="ERW8R41ELRZwyAEDq_bC-41" target="iuMVXom3aVEvyuveYDUm-55">
          <mxGeometry relative="1" as="geometry">
            <mxPoint x="480" y="-500" as="sourcePoint" />
            <mxPoint x="640" y="-500" as="targetPoint" />
          </mxGeometry>
        </mxCell>
        <mxCell id="ERW8R41ELRZwyAEDq_bC-43" value="Name" style="ellipse;whiteSpace=wrap;html=1;align=center;" vertex="1" parent="1">
          <mxGeometry x="930" y="-455" width="80" height="20" as="geometry" />
        </mxCell>
        <mxCell id="ERW8R41ELRZwyAEDq_bC-44" value="" style="endArrow=none;html=1;rounded=0;entryX=0;entryY=1;entryDx=0;entryDy=0;exitX=1;exitY=0.5;exitDx=0;exitDy=0;" edge="1" parent="1" source="iuMVXom3aVEvyuveYDUm-73" target="ERW8R41ELRZwyAEDq_bC-43">
          <mxGeometry relative="1" as="geometry">
            <mxPoint x="880" y="-400" as="sourcePoint" />
            <mxPoint x="1040" y="-400" as="targetPoint" />
          </mxGeometry>
        </mxCell>
        <mxCell id="ERW8R41ELRZwyAEDq_bC-45" value="M" style="text;html=1;align=center;verticalAlign=middle;resizable=0;points=[];autosize=1;" vertex="1" parent="1">
          <mxGeometry x="835" y="-320" width="30" height="20" as="geometry" />
        </mxCell>
        <mxCell id="ERW8R41ELRZwyAEDq_bC-47" value="(0,N)" style="text;html=1;align=center;verticalAlign=middle;resizable=0;points=[];autosize=1;" vertex="1" parent="1">
          <mxGeometry x="790" y="-320" width="40" height="20" as="geometry" />
        </mxCell>
        <mxCell id="ERW8R41ELRZwyAEDq_bC-48" value="N" style="text;html=1;align=center;verticalAlign=middle;resizable=0;points=[];autosize=1;" vertex="1" parent="1">
          <mxGeometry x="840" y="-230" width="20" height="20" as="geometry" />
        </mxCell>
        <mxCell id="ERW8R41ELRZwyAEDq_bC-49" value="(0,M)" style="text;html=1;align=center;verticalAlign=middle;resizable=0;points=[];autosize=1;" vertex="1" parent="1">
          <mxGeometry x="790" y="-230" width="40" height="20" as="geometry" />
        </mxCell>
        <mxCell id="ERW8R41ELRZwyAEDq_bC-50" value="No_Of_Orders" style="ellipse;whiteSpace=wrap;html=1;align=center;" vertex="1" parent="1">
          <mxGeometry x="695" y="-365" width="100" height="40" as="geometry" />
        </mxCell>
        <mxCell id="ERW8R41ELRZwyAEDq_bC-51" value="" style="endArrow=none;html=1;rounded=0;entryX=0.5;entryY=1;entryDx=0;entryDy=0;exitX=1;exitY=0;exitDx=0;exitDy=0;" edge="1" parent="1" source="o2ZF4EV_pDXBrr74jz46-150" target="ERW8R41ELRZwyAEDq_bC-50">
          <mxGeometry relative="1" as="geometry">
            <mxPoint x="600" y="-280" as="sourcePoint" />
            <mxPoint x="760" y="-280" as="targetPoint" />
          </mxGeometry>
        </mxCell>
        <mxCell id="ERW8R41ELRZwyAEDq_bC-52" value="No_Of_Orders" style="ellipse;whiteSpace=wrap;html=1;align=center;" vertex="1" parent="1">
          <mxGeometry x="870" y="-345" width="100" height="40" as="geometry" />
        </mxCell>
        <mxCell id="ERW8R41ELRZwyAEDq_bC-53" value="" style="endArrow=none;html=1;rounded=0;entryX=0.5;entryY=1;entryDx=0;entryDy=0;" edge="1" parent="1" source="o2ZF4EV_pDXBrr74jz46-153" target="ERW8R41ELRZwyAEDq_bC-52">
          <mxGeometry relative="1" as="geometry">
            <mxPoint x="860" y="-280" as="sourcePoint" />
            <mxPoint x="1020" y="-280" as="targetPoint" />
          </mxGeometry>
        </mxCell>
        <mxCell id="ERW8R41ELRZwyAEDq_bC-55" value="Total_Amount" style="ellipse;whiteSpace=wrap;html=1;align=center;dashed=1;" vertex="1" parent="1">
          <mxGeometry x="370" y="-200" width="110" height="30" as="geometry" />
        </mxCell>
        <mxCell id="ERW8R41ELRZwyAEDq_bC-56" value="" style="endArrow=none;html=1;rounded=0;entryX=0.074;entryY=0;entryDx=0;entryDy=0;entryPerimeter=0;exitX=0.5;exitY=1;exitDx=0;exitDy=0;" edge="1" parent="1" source="ERW8R41ELRZwyAEDq_bC-55" target="ERW8R41ELRZwyAEDq_bC-23">
          <mxGeometry relative="1" as="geometry">
            <mxPoint x="390" y="-290" as="sourcePoint" />
            <mxPoint x="550" y="-290" as="targetPoint" />
          </mxGeometry>
        </mxCell>
        <mxCell id="ERW8R41ELRZwyAEDq_bC-57" value="&lt;span style=&quot;border-bottom: 1px dotted&quot;&gt;Room_Reservation_ID&lt;/span&gt;" style="ellipse;whiteSpace=wrap;html=1;align=center;" vertex="1" parent="1">
          <mxGeometry x="670" y="-205" width="140" height="35" as="geometry" />
        </mxCell>
        <mxCell id="ERW8R41ELRZwyAEDq_bC-58" value="" style="endArrow=none;html=1;rounded=0;exitX=0.5;exitY=1;exitDx=0;exitDy=0;" edge="1" parent="1" source="ERW8R41ELRZwyAEDq_bC-57">
          <mxGeometry relative="1" as="geometry">
            <mxPoint x="720" y="-160" as="sourcePoint" />
            <mxPoint x="719" y="-98" as="targetPoint" />
          </mxGeometry>
        </mxCell>
        <mxCell id="ERW8R41ELRZwyAEDq_bC-59" value="(1,N)" style="text;html=1;align=center;verticalAlign=middle;resizable=0;points=[];autosize=1;" vertex="1" parent="1">
          <mxGeometry x="-280" y="-720" width="40" height="20" as="geometry" />
        </mxCell>
        <mxCell id="ERW8R41ELRZwyAEDq_bC-60" value="(1,1)" style="text;html=1;align=center;verticalAlign=middle;resizable=0;points=[];autosize=1;" vertex="1" parent="1">
          <mxGeometry x="-253.5" y="-630" width="40" height="20" as="geometry" />
        </mxCell>
        <mxCell id="ERW8R41ELRZwyAEDq_bC-62" value="Has" style="shape=rhombus;perimeter=rhombusPerimeter;whiteSpace=wrap;html=1;align=center;" vertex="1" parent="1">
          <mxGeometry x="325" y="-420" width="90" height="35" as="geometry" />
        </mxCell>
        <mxCell id="ERW8R41ELRZwyAEDq_bC-64" value="" style="shape=link;html=1;rounded=0;exitX=0.5;exitY=1;exitDx=0;exitDy=0;entryX=0.5;entryY=0;entryDx=0;entryDy=0;" edge="1" parent="1" source="ERW8R41ELRZwyAEDq_bC-62" target="ERW8R41ELRZwyAEDq_bC-68">
          <mxGeometry relative="1" as="geometry">
            <mxPoint x="370" y="-380" as="sourcePoint" />
            <mxPoint x="370" y="-270" as="targetPoint" />
          </mxGeometry>
        </mxCell>
        <mxCell id="ERW8R41ELRZwyAEDq_bC-66" value="" style="shape=link;html=1;rounded=0;entryX=0.5;entryY=0;entryDx=0;entryDy=0;exitX=1;exitY=1;exitDx=0;exitDy=0;" edge="1" parent="1" source="iuMVXom3aVEvyuveYDUm-22" target="ERW8R41ELRZwyAEDq_bC-62">
          <mxGeometry relative="1" as="geometry">
            <mxPoint x="250" y="-460" as="sourcePoint" />
            <mxPoint x="410" y="-460" as="targetPoint" />
          </mxGeometry>
        </mxCell>
        <mxCell id="ERW8R41ELRZwyAEDq_bC-68" value="Room Type" style="whiteSpace=wrap;html=1;align=center;" vertex="1" parent="1">
          <mxGeometry x="320" y="-270" width="100" height="30" as="geometry" />
        </mxCell>
        <mxCell id="ERW8R41ELRZwyAEDq_bC-70" value="Name" style="ellipse;whiteSpace=wrap;html=1;align=center;fontStyle=4;" vertex="1" parent="1">
          <mxGeometry x="378" y="-335" width="62" height="25" as="geometry" />
        </mxCell>
        <mxCell id="ERW8R41ELRZwyAEDq_bC-71" value="Description" style="ellipse;whiteSpace=wrap;html=1;align=center;" vertex="1" parent="1">
          <mxGeometry x="420" y="-300" width="90" height="30" as="geometry" />
        </mxCell>
        <mxCell id="ERW8R41ELRZwyAEDq_bC-73" value="" style="endArrow=none;html=1;rounded=0;entryX=0.5;entryY=1;entryDx=0;entryDy=0;exitX=0.75;exitY=0;exitDx=0;exitDy=0;" edge="1" parent="1" source="ERW8R41ELRZwyAEDq_bC-68" target="ERW8R41ELRZwyAEDq_bC-70">
          <mxGeometry relative="1" as="geometry">
            <mxPoint x="320" y="-280" as="sourcePoint" />
            <mxPoint x="480" y="-280" as="targetPoint" />
          </mxGeometry>
        </mxCell>
        <mxCell id="ERW8R41ELRZwyAEDq_bC-74" value="" style="endArrow=none;html=1;rounded=0;entryX=0.5;entryY=1;entryDx=0;entryDy=0;exitX=1;exitY=0.5;exitDx=0;exitDy=0;" edge="1" parent="1" source="ERW8R41ELRZwyAEDq_bC-68" target="ERW8R41ELRZwyAEDq_bC-71">
          <mxGeometry relative="1" as="geometry">
            <mxPoint x="250" y="-150" as="sourcePoint" />
            <mxPoint x="410" y="-150" as="targetPoint" />
          </mxGeometry>
        </mxCell>
        <mxCell id="ERW8R41ELRZwyAEDq_bC-75" value="N" style="text;html=1;align=center;verticalAlign=middle;resizable=0;points=[];autosize=1;" vertex="1" parent="1">
          <mxGeometry x="350" y="-450" width="20" height="20" as="geometry" />
        </mxCell>
        <mxCell id="ERW8R41ELRZwyAEDq_bC-76" value="1" style="text;html=1;align=center;verticalAlign=middle;resizable=0;points=[];autosize=1;" vertex="1" parent="1">
          <mxGeometry x="378" y="-380" width="20" height="20" as="geometry" />
        </mxCell>
        <mxCell id="ERW8R41ELRZwyAEDq_bC-77" value="(1,N)" style="text;html=1;align=center;verticalAlign=middle;resizable=0;points=[];autosize=1;" vertex="1" parent="1">
          <mxGeometry x="330" y="-380" width="40" height="20" as="geometry" />
        </mxCell>
        <mxCell id="ERW8R41ELRZwyAEDq_bC-78" value="(1,1)" style="text;html=1;align=center;verticalAlign=middle;resizable=0;points=[];autosize=1;" vertex="1" parent="1">
          <mxGeometry x="300" y="-430" width="40" height="20" as="geometry" />
        </mxCell>
      </root>
    </mxGraphModel>
  </diagram>
</mxfile>
